<svg height="512" width="512" fill="#ffffff" xmlns="http://www.w3.org/2000/svg" data-name="30_Premium"><path d="M252.92 300H256a124.245 124.245 0 1 0-4.49-.09c.075.009.15.023.226.03.394.039.789.06 1.184.06zM156 176a100 100 0 1 1 100 100 100.113 100.113 0 0 1-100-100z"/><path d="m447.445 387.635-80.4-80.4A171.682 171.682 0 0 0 428 176C428 81.159 350.841 4 256 4S84 81.159 84 176c0 73.747 46.657 136.794 112 161.2V496c-.3 9.289 11.094 15.384 18.656 9.984L256 478.422l41.344 27.562c7.574 5.4 18.949-.7 18.656-9.984v-70.109l46.6 46.594c6.395 6.789 18.712 3.025 20.253-6.132l9.74-48.724 48.725-9.742c9.163-1.531 12.904-13.893 6.127-20.252zM108 176c0-81.607 66.393-148 148-148s148 66.393 148 148-66.393 148-148 148-148-66.393-148-148zm154.656 278.016a12 12 0 0 0-13.312 0L220 473.578V344.2a172.338 172.338 0 0 0 72 0v129.38zm117.381-58.353a12 12 0 0 0-9.415 9.415l-6.913 34.58L316 391.949V337.2a171.469 171.469 0 0 0 31.467-15.6l67.151 67.152z"/><path d="M287.62 236.985c8.349 4.694 19.251-3.212 17.367-12.618l-5.841-35.145 25.384-25c7.049-6.5 2.89-19.3-6.634-20.415l-35.23-5.306-15.933-31.867c-4.009-8.713-17.457-8.711-21.466 0L229.334 138.5l-35.23 5.306c-9.526 1.119-13.681 13.911-6.634 20.415l25.384 25-5.841 35.145c-1.879 9.406 9 17.31 17.367 12.618L256 220.57zm-53-32.359 2.928-17.615a12 12 0 0 0-3.417-10.516l-12.721-12.531 17.658-2.66a12 12 0 0 0 8.947-6.5L256 138.833l7.985 15.972a12 12 0 0 0 8.947 6.5l17.658 2.66-12.723 12.535a12 12 0 0 0-3.417 10.516l2.928 17.615-15.849-8.231a12 12 0 0 0-11.058 0z"/></svg>